<svg width="89" height="149" viewBox="0 0 89 149" fill="none" xmlns="http://www.w3.org/2000/svg">
<path d="M12.3223 109V60.9531C12.3223 54.9961 14.1289 50.1296 17.7422 46.3535C21.3555 42.5775 26.043 40.6895 31.8047 40.6895C38.6406 40.6895 43.8978 43.8307 47.5762 50.1133C49.8223 46.7279 52.2311 44.319 54.8027 42.8867C57.3743 41.4219 60.5482 40.6895 64.3242 40.6895C70.3138 40.6895 74.9036 42.5775 78.0938 46.3535C81.2839 50.1296 82.8789 55.5658 82.8789 62.6621V109H63.0547V65.6406C63.0547 63.4922 62.8757 62.0762 62.5176 61.3926C62.1921 60.6764 61.5085 60.3184 60.4668 60.3184C58.5137 60.3184 57.5371 61.9785 57.5371 65.2988V109H37.7129V65.6406C37.7129 63.5247 37.5339 62.1087 37.1758 61.3926C36.8177 60.6764 36.1178 60.3184 35.0762 60.3184C33.123 60.3184 32.1465 62.0924 32.1465 65.6406V109H12.3223Z" fill="#EB8AAD"/>
<path d="M5.32227 106V57.9531C5.32227 51.9961 7.12891 47.1296 10.7422 43.3535C14.3555 39.5775 19.043 37.6895 24.8047 37.6895C31.6406 37.6895 36.8978 40.8307 40.5762 47.1133C42.8223 43.7279 45.2311 41.319 47.8027 39.8867C50.3743 38.4219 53.5482 37.6895 57.3242 37.6895C63.3138 37.6895 67.9036 39.5775 71.0938 43.3535C74.2839 47.1296 75.8789 52.5658 75.8789 59.6621V106H56.0547V62.6406C56.0547 60.4922 55.8757 59.0762 55.5176 58.3926C55.1921 57.6764 54.5085 57.3184 53.4668 57.3184C51.5137 57.3184 50.5371 58.9785 50.5371 62.2988V106H30.7129V62.6406C30.7129 60.5247 30.5339 59.1087 30.1758 58.3926C29.8177 57.6764 29.1178 57.3184 28.0762 57.3184C26.123 57.3184 25.1465 59.0924 25.1465 62.6406V106H5.32227Z" fill="#58EDA0"/>
</svg>
